<?xml version="1.0" encoding="UTF-8" standalone="no"?>
<!-- Created with Inkscape (http://www.inkscape.org/) -->

<svg
   xmlns:dc="http://purl.org/dc/elements/1.1/"
   xmlns:cc="http://creativecommons.org/ns#"
   xmlns:rdf="http://www.w3.org/1999/02/22-rdf-syntax-ns#"
   xmlns:svg="http://www.w3.org/2000/svg"
   xmlns="http://www.w3.org/2000/svg"
   xmlns:sodipodi="http://sodipodi.sourceforge.net/DTD/sodipodi-0.dtd"
   xmlns:inkscape="http://www.inkscape.org/namespaces/inkscape"
   version="1.1"
   id="svg10"
   width="128"
   height="128"
   viewBox="0 0 128 128"
   sodipodi:docname="e-mail.svg"
   inkscape:version="0.92.3 (2405546, 2018-03-11)">
  <metadata
     id="metadata16">
    <rdf:RDF>
      <cc:Work
         rdf:about="">
        <dc:format>image/svg+xml</dc:format>
        <dc:type
           rdf:resource="http://purl.org/dc/dcmitype/StillImage" />
        <dc:title></dc:title>
      </cc:Work>
    </rdf:RDF>
  </metadata>
  <defs
     id="defs14" />
  <sodipodi:namedview
     pagecolor="#ffffff"
     bordercolor="#666666"
     borderopacity="1"
     objecttolerance="10"
     gridtolerance="10"
     guidetolerance="10"
     inkscape:pageopacity="0"
     inkscape:pageshadow="2"
     inkscape:window-width="1366"
     inkscape:window-height="705"
     id="namedview12"
     showgrid="false"
     inkscape:zoom="4.1875"
     inkscape:cx="64"
     inkscape:cy="64"
     inkscape:window-x="-8"
     inkscape:window-y="-8"
     inkscape:window-maximized="1"
     inkscape:current-layer="svg10" />
  <path
     style="fill:#000000"
     d="M 38.5,123.97573 C 23.783967,117.7521 10.116729,104.02662 3.9908518,89.319518 1.5669129,83.500088 1.0284005,80.846403 1.1498321,75.319518 1.2322397,71.568783 1.4863615,69.85 1.714547,71.5 4.5904522,92.295547 17.744551,110.83572 36.033849,119.87167 40.690232,122.17219 47.65,124.6749 51.5,125.43325 l 7,1.37882 -6.5,0.062 c -5.055343,0.0482 -8.055785,-0.59593 -13.5,-2.89837 z m 36.371244,1.89814 C 98.983317,121.86815 120.6678,100.69322 125.43325,76.5 l 1.37882,-7 0.094,6.319518 C 127.2396,98.253086 98.182852,127.29679 75.819518,126.8831 L 69.5,126.76619 Z M 29.098156,90.735258 C 23.224672,87.71455 23.631407,86.814406 36.74314,73.816164 L 48.98628,61.678998 37.795817,50.336822 c -8.939562,-9.060758 -10.939571,-11.593068 -9.94314,-12.589499 1.80378,-1.80378 70.490866,-1.80378 72.294643,0 0.99643,0.996431 -1.003575,3.528741 -9.943137,12.589499 L 79.01372,61.678998 91.25686,73.816164 c 10.4878,10.397019 12.08569,12.391416 11.14498,13.910501 -2.475147,3.996947 -4.709338,4.243851 -38.40184,4.243851 -23.830203,0 -33.140723,-0.329521 -34.901844,-1.235258 z M 98.418213,88.393011 C 99.288196,88.059167 100,87.279351 100,86.660086 100,86.040821 95.398571,80.917007 89.774602,75.273833 L 79.549205,65.013516 74.240012,70.256758 C 69.280819,75.154349 68.605765,75.5 64,75.5 59.394235,75.5 58.719181,75.154349 53.759988,70.256758 L 48.450795,65.013516 38.225398,75.273833 C 28.134498,85.399191 26.795944,87.347486 29.25,88.337719 c 1.802431,0.727297 67.280594,0.779639 69.168213,0.05529 z M 60,72.712408 c 0,-0.158175 -2.3625,-2.520675 -5.25,-5.25 L 49.5,62.5 54.462408,67.75 C 59.073566,72.628394 60,73.4586 60,72.712408 Z M 73.5,68 c 2.708649,-2.75 4.699816,-5 4.424816,-5 -0.275,0 -2.716167,2.25 -5.424816,5 -2.708649,2.75 -4.699816,5 -4.424816,5 0.275,0 2.716167,-2.25 5.424816,-5 z M 82.437888,55.008287 98.5,39.016573 H 64 29.5 L 45.562112,55.008287 C 57.274438,66.669278 62.267609,71 64,71 65.732391,71 70.725562,66.669278 82.437888,55.008287 Z M 24,62.468615 c 0,-17.844342 0.208096,-20.611238 1.590037,-21.141539 1.107899,-0.425141 4.594979,2.383512 11.5,9.262623 C 42.540517,56.019727 47,60.913236 47,61.464164 47,62.938132 26.75527,83 25.267867,83 24.285213,83 24,78.381369 24,62.468615 Z M 36.271383,70.229682 45.001067,61.459363 36.000533,52.500531 27,43.541699 v 17.72915 C 27,71.021882 27.121882,79 27.270849,79 c 0.148967,0 4.199207,-3.946643 9.000534,-8.770318 z m 54.96075,2.503243 C 85.60446,67.086035 81,62.015092 81,61.464164 81,60.913236 85.459483,56.019727 90.909963,50.589699 97.814984,43.710588 101.30206,40.901935 102.40996,41.327076 103.7919,41.857377 104,44.624273 104,62.468615 104,78.381369 103.71479,83 102.73213,83 102.03481,83 96.859806,78.379816 91.232133,72.732925 Z M 101,61.270849 v -17.72915 l -9.000533,8.958832 -9.000534,8.958832 8.729684,8.770319 C 96.529944,75.053357 100.58018,79 100.72915,79 100.87812,79 101,71.021882 101,61.270849 Z M 1.3999407,51.47595 c 0.2094825,-6.912896 0.7471834,-9.059304 3.8829349,-15.5 C 12.109827,21.953693 23.083822,11.131309 37,4.6970132 c 5.213742,-2.4106301 8.083087,-3.058268 14.5,-3.2727859 4.4,-0.1470924 6.65,-0.048596 5,0.218881 C 41.405612,4.0900172 30.286269,9.6729132 19.979591,19.979591 9.6729132,30.286269 4.0900172,41.405612 1.6431083,56.5 1.3756314,58.15 1.266206,55.889177 1.3999407,51.47595 Z M 125.30074,51.522481 C 121.57671,29.855428 102.19854,9.1485619 80.5,3.6498994 77.2,2.8136412 73.15,1.9427326 71.5,1.714547 69.85,1.4863615 71.568783,1.2322397 75.319518,1.1498321 93.062802,0.75999317 115.40078,18.013276 124.05576,38.792457 c 2.48526,5.96668 2.98355,8.420997 2.74086,13.5 L 126.5,58.5 Z"
     id="path22"
     inkscape:connector-curvature="0" />
</svg>
