<?xml version="1.0" encoding="UTF-8"?>
<svg xmlns="http://www.w3.org/2000/svg" width="512" height="512" viewBox="0 0 512 512">
  <path d="m206.17 501.39c-91.271-18.729-166.07-86.783-193.89-176.41-5.9313-19.106-8.2766-32.554-8.6307-49.491-0.30485-14.579-0.27233-14.906 0.5472-5.5 8.9487 102.7 77.372 189.68 174.16 221.38 19.679 6.4458 38.135 10.338 56.952 12.011l9.3637 0.83233-12 0.0755c-9.6087 0.0604-14.89-0.51749-26.5-2.9zm75.5 2.0415c50.609-5.197 97.52-24.276 136.51-55.521 10.499-8.4128 29.446-27.286 37.965-37.816 16.084-19.881 32.76-49.238 41.527-73.105 6.6682-18.154 12.292-43.196 14.484-64.5 0.78782-7.6552 0.84012-7.1086 0.52626 5.5-0.49007 19.687-5.0362 39.671-14.732 64.758-25.808 66.777-79.749 120.72-146.53 146.53-25.083 9.6943-45.069 14.241-64.758 14.733-13.353 0.33347-13.584 0.30692-5-0.57458zm-159.1-148.77c-6.7465-2.3321-12.527-7.0445-15.488-12.627l-2.4102-4.5433 44.993-45.002c24.746-24.751 45.655-45.002 46.464-45.002 0.80887 0 9.8107 8.275 20.004 18.389 12.81 12.71 20.078 19.153 23.533 20.863 11.828 5.8526 23.886 6.0941 35.401 0.70886 5.6147-2.6259 9.3627-5.8357 25.132-21.524 10.193-10.141 19.195-18.437 20.004-18.437 0.80888 0 21.718 20.251 46.464 45.002l44.993 45.002-2.4402 4.5998c-1.3421 2.5299-4.447 6.1321-6.8997 8.0049-8.8348 6.7459-0.87058 6.3956-144.59 6.3595-121.56-0.0305-130.4-0.1479-135.16-1.7943zm272.38-3.0624c5.0324-2.274 13.212-10.016 13.212-12.506 0-0.61241-19.788-20.897-43.973-45.078l-43.973-43.964-18.364 18.195c-15.77 15.624-19.341 18.657-25.277 21.468-6.5674 3.1101-7.4876 3.2733-18.413 3.2654-11.02-8e-3 -11.792-0.14981-18.5-3.3973-5.9547-2.883-9.7293-6.0876-25.277-21.46l-18.277-18.071-43.973 43.964c-24.185 24.18-43.973 44.448-43.973 45.038 0 2.0577 7.2426 9.5174 11.201 11.537 2.1925 1.1185 5.8566 2.4086 8.1426 2.867 2.2859 0.45832 62.206 0.76515 133.16 0.68186l129-0.15145zm-291.79-106.14c0-67.625 0.22463-80.57 1.449-83.5 0.79694-1.9073 2.0324-3.4679 2.7454-3.4679 1.831 0 81.806 80.164 81.806 82 0 1.8026-82.957 85-84.754 85-0.98374 0-1.2456-16.824-1.2456-80.032zm43.839-44.626-39.658-39.658-1.085 3.9078c-0.73626 2.6518-1.0868 28.496-1.0906 80.406l-6e-3 76.498 81.497-81.497-39.658-39.658zm221.91 82.903c-22.96-22.965-41.746-42.204-41.746-42.755 0-1.1755 81.133-82.491 82.306-82.491 0.43807 0 1.4485 1.5606 2.2455 3.4679 2.0083 4.8065 2.1971 163.53 0.19451 163.53-0.68996 0-20.04-18.789-43-41.754zm42.031-59.446c-0.18145-39.846-0.62939-61.053-1.3038-61.727-0.70297-0.70259-13.49 11.438-40.495 38.451l-39.468 39.477 80.991 81.012 0.27642-18.256c0.15203-10.041 0.15203-45.571 0-78.957zm-159.43 58.201c-2.2859-0.47503-6.1109-1.8407-8.5-3.0349-2.9802-1.4896-24.121-21.912-67.344-65.056-69.771-69.644-65.323-64.164-55.943-68.909l4.9426-2.5h267l5.75 2.8236c3.6273 1.7812 5.75 3.4492 5.75 4.5182 0.93207-28.462 30.078-63.25 64.769-68.602 68.412-66.444 66.556-78.75 67.729-3.025 0.28832-7.3703 0.13556-9.6562-0.33948zm17.228-3.6271c4.4723-1.4766 10.779-7.4645 68.178-64.732 34.788-34.708 63.25-63.395 63.25-63.75 0-0.35479-2.3625-1.713-5.25-3.0182l-5.25-2.3731h-263l-5.25 2.3731c-2.8875 1.3052-5.25 2.6634-5.25 3.0182 0 0.3548 28.462 29.008 63.25 63.675 69.226 68.985 65.952 66.21 78.322 66.36 3.3395 0.0405 8.2895-0.65854 11-1.5534zm-265.43-51.948c-0.3925-34.062 16.03-82.535 40.234-118.76 11.832-17.706 18.273-25.495 34.046-41.168 19.859-19.733 38.408-33.304 62.777-45.931 31.822-16.488 68.742-26.735 95.229-26.43l12.075 0.13915-10.5 0.85793c-34.663 2.8322-72.321 14.252-102.17 30.984-74.539 41.782-123.93 118.07-130.7 201.88l-0.84846 10.5zm509.07 3.7034c-0.60612-15.438-6.1919-42.831-12.612-61.85-32.733-96.966-119.22-164.81-220.74-173.15l-10.354-0.8507 12.119-0.13915c18.006-0.20673 40.222 4.2369 64.813 12.964 13.306 4.7219 37.229 16.298 48.568 23.5 30.822 19.579 58.75 46.792 78.654 76.639 23.706 35.549 41.098 86.618 40.103 117.76-0.1845 5.775-0.43036 8.0828-0.54635 5.1283z" fill="currentColor"/>
</svg>
